<?xml version="1.0" encoding="UTF-8" standalone="no"?>
<!DOCTYPE svg PUBLIC "-//W3C//DTD SVG 1.1//EN"
 "http://www.w3.org/Graphics/SVG/1.1/DTD/svg11.dtd">
<!-- Generated by graphviz version 16.1.0 (20260904.0139)
 -->
<!-- Title: ClassDiagram Pages: 1 -->
<svg width="504pt" height="632pt"
 viewBox="0.00 0.00 504.00 632.00" xmlns="http://www.w3.org/2000/svg" xmlns:xlink="http://www.w3.org/1999/xlink">
<g id="graph0" class="graph" transform="scale(1 1) rotate(0) translate(36 595.75)">
<title>ClassDiagram</title>
<polygon fill="white" stroke="none" points="-36,36 -36,-595.75 467.62,-595.75 467.62,36 -36,36"/>
<text xml:space="preserve" text-anchor="middle" x="215.81" y="-542.45" font-family="Helvetica,sans-Serif" font-size="14.00">Rectangle.h</text>
<!-- Rectangle -->
<g id="node1" class="node">
<title>Rectangle</title>
<polygon fill="#d6e4f0" stroke="#1b3a6b" points="78.12,-121.5 78.12,-415.5 311.62,-415.5 311.62,-121.5 78.12,-121.5"/>
<text xml:space="preserve" text-anchor="middle" x="194.88" y="-401.05" font-family="Helvetica,sans-Serif" font-size="11.00">&lt;&lt;class&gt;&gt;</text>
<text xml:space="preserve" text-anchor="middle" x="194.88" y="-387.55" font-family="Helvetica,sans-Serif" font-size="11.00">Rectangle</text>
<polyline fill="none" stroke="#1b3a6b" points="78.12,-380.5 311.62,-380.5"/>
<text xml:space="preserve" text-anchor="start" x="86.12" y="-366.05" font-family="Helvetica,sans-Serif" font-size="11.00">&#45; length : double</text>
<text xml:space="preserve" text-anchor="start" x="86.12" y="-352.55" font-family="Helvetica,sans-Serif" font-size="11.00"> &#45; width : double</text>
<text xml:space="preserve" text-anchor="start" x="86.12" y="-339.05" font-family="Helvetica,sans-Serif" font-size="11.00"> &#45; pcolor : string*</text>
<text xml:space="preserve" text-anchor="start" x="86.12" y="-325.55" font-family="Helvetica,sans-Serif" font-size="11.00"> &#45; counter : int {static}</text>
<polyline fill="none" stroke="#1b3a6b" points="78.12,-318.5 311.62,-318.5"/>
<text xml:space="preserve" text-anchor="start" x="86.12" y="-304.05" font-family="Helvetica,sans-Serif" font-size="11.00">+ setLength(double) : void</text>
<text xml:space="preserve" text-anchor="start" x="86.12" y="-290.55" font-family="Helvetica,sans-Serif" font-size="11.00"> + setWidth(double) : void</text>
<text xml:space="preserve" text-anchor="start" x="86.12" y="-277.05" font-family="Helvetica,sans-Serif" font-size="11.00"> + setColor(string) : void</text>
<text xml:space="preserve" text-anchor="start" x="86.12" y="-263.55" font-family="Helvetica,sans-Serif" font-size="11.00"> + getLength() : double const</text>
<text xml:space="preserve" text-anchor="start" x="86.12" y="-250.05" font-family="Helvetica,sans-Serif" font-size="11.00"> + getWidth() : double const</text>
<text xml:space="preserve" text-anchor="start" x="86.12" y="-236.55" font-family="Helvetica,sans-Serif" font-size="11.00"> + getColor() : string const</text>
<text xml:space="preserve" text-anchor="start" x="86.12" y="-223.05" font-family="Helvetica,sans-Serif" font-size="11.00"> + Rectangle(double, double, string)</text>
<text xml:space="preserve" text-anchor="start" x="86.12" y="-209.55" font-family="Helvetica,sans-Serif" font-size="11.00"> + Rectangle(const Rectangle&amp;)</text>
<text xml:space="preserve" text-anchor="start" x="86.12" y="-196.05" font-family="Helvetica,sans-Serif" font-size="11.00"> + operator=(const Rectangle&amp;) : Rectangle&amp;</text>
<text xml:space="preserve" text-anchor="start" x="86.12" y="-182.55" font-family="Helvetica,sans-Serif" font-size="11.00"> + ~Rectangle()</text>
<text xml:space="preserve" text-anchor="start" x="86.12" y="-169.05" font-family="Helvetica,sans-Serif" font-size="11.00"> + toString() : string const</text>
<text xml:space="preserve" text-anchor="start" x="86.12" y="-155.55" font-family="Helvetica,sans-Serif" font-size="11.00"> + getCount() : int {static}</text>
<text xml:space="preserve" text-anchor="start" x="86.12" y="-142.05" font-family="Helvetica,sans-Serif" font-size="11.00"> + getArea() : double const</text>
<text xml:space="preserve" text-anchor="start" x="86.12" y="-128.55" font-family="Helvetica,sans-Serif" font-size="11.00"> + getPerimeter() : double const</text>
</g>
<!-- Shape -->
<g id="node4" class="node">
<title>Shape</title>
<polygon fill="lightgrey" stroke="black" points="167.88,-0.5 167.88,-36.5 221.88,-36.5 221.88,-0.5 167.88,-0.5"/>
<text xml:space="preserve" text-anchor="middle" x="194.62" y="-14.8" font-family="Helvetica,sans-Serif" font-size="11.00">Shape</text>
</g>
<!-- Rectangle&#45;&gt;Shape -->
<g id="edge3" class="edge">
<title>Rectangle&#45;&gt;Shape</title>
<path fill="none" stroke="#1b3a6b" d="M194.88,-121.09C194.88,-93.21 194.88,-66.9 194.88,-48.05"/>
<polygon fill="none" stroke="#1b3a6b" points="198.38,-48.3 194.88,-38.3 191.38,-48.3 198.38,-48.3"/>
<text xml:space="preserve" text-anchor="middle" x="210.62" y="-75.5" font-family="Helvetica,sans-Serif" font-size="10.00"> &#160;public</text>
</g>
<!-- friend_showBox -->
<g id="node2" class="node">
<title>friend_showBox</title>
<polygon fill="#fffbea" stroke="#c8960c" points="139.75,-536 0,-536 0,-500 145.75,-500 145.75,-530 139.75,-536"/>
<polyline fill="none" stroke="#c8960c" points="139.75,-536 139.75,-530"/>
<polyline fill="none" stroke="#c8960c" points="145.75,-530 139.75,-530"/>
<text xml:space="preserve" text-anchor="middle" x="72.88" y="-514.5" font-family="Helvetica,sans-Serif" font-size="10.00">friend\nshowBox(Rectangle&amp;)</text>
</g>
<!-- friend_showBox&#45;&gt;Rectangle -->
<g id="edge1" class="edge">
<title>friend_showBox&#45;&gt;Rectangle</title>
<path fill="none" stroke="#c8960c" stroke-dasharray="5,2" d="M81.45,-499.6C89.72,-482.82 103.13,-455.62 117.88,-425.7"/>
<polygon fill="#c8960c" stroke="#c8960c" points="122.17,-416.99 121.79,-427.95 120.5,-420.39 117.75,-425.96 117.75,-425.96 117.75,-425.96 120.5,-420.39 113.71,-423.97 122.17,-416.99"/>
<text xml:space="preserve" text-anchor="middle" x="126.36" y="-454.5" font-family="Helvetica,sans-Serif" font-size="10.00"> &#160;accesses</text>
</g>
<!-- friend_operator__ -->
<g id="node3" class="node">
<title>friend_operator__</title>
<polygon fill="#fffbea" stroke="#c8960c" points="425.62,-536 204.12,-536 204.12,-500 431.62,-500 431.62,-530 425.62,-536"/>
<polyline fill="none" stroke="#c8960c" points="425.62,-536 425.62,-530"/>
<polyline fill="none" stroke="#c8960c" points="431.62,-530 425.62,-530"/>
<text xml:space="preserve" text-anchor="middle" x="317.88" y="-514.5" font-family="Helvetica,sans-Serif" font-size="10.00">friend\noperator&lt;&lt;(ostream&amp;, const Rectangle&amp;)</text>
</g>
<!-- friend_operator__&#45;&gt;Rectangle -->
<g id="edge2" class="edge">
<title>friend_operator__&#45;&gt;Rectangle</title>
<path fill="none" stroke="#c8960c" stroke-dasharray="5,2" d="M309.23,-499.6C300.89,-482.82 287.37,-455.62 272.5,-425.7"/>
<polygon fill="#c8960c" stroke="#c8960c" points="268.17,-416.99 276.65,-423.94 269.86,-420.38 272.62,-425.95 272.62,-425.95 272.62,-425.95 269.86,-420.38 268.59,-427.95 268.17,-416.99"/>
<text xml:space="preserve" text-anchor="middle" x="315.31" y="-454.5" font-family="Helvetica,sans-Serif" font-size="10.00"> &#160;accesses</text>
</g>
</g>
</svg>
